# Blender 4.0.2
# www.blender.org
o traffic_cone_02
v -0.000000 0.450000 -0.022892
v 0.008760 0.450000 -0.021149
v 0.016187 0.450000 -0.016187
v 0.021149 0.450000 -0.008760
v 0.022892 0.450000 0.000000
v 0.021149 0.450000 0.008760
v 0.016187 0.450000 0.016187
v 0.008760 0.450000 0.021149
v -0.000000 0.450000 0.022892
v -0.008760 0.450000 0.021149
v -0.016187 0.450000 0.016187
v -0.021149 0.450000 0.008760
v -0.022892 0.450000 0.000000
v -0.021149 0.450000 -0.008760
v -0.016187 0.450000 -0.016187
v -0.008760 0.450000 -0.021149
v 0.000000 0.031830 -0.150098
v 0.150098 0.031830 -0.000000
v -0.000000 0.031830 0.150098
v -0.150098 0.031830 -0.000000
v 0.000000 -0.000000 -0.150098
v 0.150098 -0.000000 -0.000000
v -0.000000 -0.000000 0.150098
v -0.150098 -0.000000 -0.000000
v 0.150098 0.031830 -0.128745
v 0.128745 0.031830 -0.150098
v 0.143844 0.031830 -0.143844
v 0.128745 0.031830 0.150098
v 0.150098 0.031830 0.128745
v 0.143844 0.031830 0.143844
v -0.150098 0.031830 0.128745
v -0.128745 0.031830 0.150098
v -0.143844 0.031830 0.143844
v -0.128745 0.031830 -0.150098
v -0.150098 0.031830 -0.128745
v -0.143844 0.031830 -0.143844
v 0.128745 -0.000000 -0.150098
v 0.150098 -0.000000 -0.128745
v 0.143844 -0.000000 -0.143844
v 0.150098 -0.000000 0.128745
v 0.128745 -0.000000 0.150098
v 0.143844 -0.000000 0.143844
v -0.128745 -0.000000 0.150098
v -0.150098 -0.000000 0.128745
v -0.143844 -0.000000 0.143844
v -0.150098 -0.000000 -0.128745
v -0.128745 -0.000000 -0.150098
v -0.143844 -0.000000 -0.143844
v 0.014367 0.447151 -0.034685
v -0.000000 0.447151 -0.037543
v 0.026547 0.447151 -0.026547
v 0.034685 0.447151 -0.014367
v 0.037543 0.447151 0.000000
v 0.034685 0.447151 0.014367
v 0.026547 0.447151 0.026547
v 0.014367 0.447151 0.034685
v -0.000000 0.447151 0.037543
v -0.014367 0.447151 0.034685
v -0.026547 0.447151 0.026547
v -0.034685 0.447151 0.014367
v -0.037543 0.447151 -0.000000
v -0.034685 0.447151 -0.014367
v -0.026547 0.447151 -0.026547
v -0.014367 0.447151 -0.034685
v 0.000000 0.031830 -0.128575
v -0.000000 0.047580 -0.110056
v -0.000000 0.036443 -0.116603
v 0.101678 0.047580 -0.042117
v 0.118787 0.031830 -0.049203
v 0.107727 0.036443 -0.044622
v 0.118787 0.031830 0.049203
v 0.101678 0.047580 0.042117
v 0.107727 0.036443 0.044622
v 0.077821 0.047580 0.077821
v 0.090916 0.031830 0.090916
v 0.082451 0.036443 0.082451
v 0.000000 0.047580 0.110056
v -0.000000 0.031830 0.128575
v -0.000000 0.036443 0.116603
v -0.101678 0.047580 0.042117
v -0.118787 0.031830 0.049203
v -0.107727 0.036443 0.044622
v -0.118787 0.031830 -0.049203
v -0.101678 0.047580 -0.042117
v -0.107727 0.036443 -0.044622
v -0.077821 0.047580 -0.077821
v -0.090916 0.031830 -0.090916
v -0.082451 0.036443 -0.082451
v 0.049203 0.031830 -0.118787
v 0.042117 0.047580 -0.101678
v 0.044622 0.036443 -0.107727
v 0.077821 0.047580 -0.077821
v 0.090916 0.031830 -0.090916
v 0.082451 0.036443 -0.082451
v 0.110056 0.047580 -0.000000
v 0.128575 0.031830 0.000000
v 0.116603 0.036443 0.000000
v 0.042117 0.047580 0.101678
v 0.049203 0.031830 0.118787
v 0.044622 0.036443 0.107727
v -0.049203 0.031830 0.118787
v -0.042117 0.047580 0.101678
v -0.044622 0.036443 0.107727
v -0.077821 0.047580 0.077821
v -0.090916 0.031830 0.090916
v -0.082451 0.036443 0.082451
v -0.110056 0.047580 0.000000
v -0.128575 0.031830 -0.000000
v -0.116603 0.036443 0.000000
v -0.042117 0.047580 -0.101678
v -0.049203 0.031830 -0.118787
v -0.044622 0.036443 -0.107727
v 0.044701 -0.000000 -0.107917
v 0.035464 0.020778 -0.085619
v -0.000000 0.020778 -0.092673
v 0.000000 -0.000000 -0.116809
v 0.082596 -0.000000 -0.082596
v 0.065530 0.020778 -0.065530
v 0.107917 0.000000 -0.044701
v 0.085619 0.020778 -0.035464
v 0.116809 0.000000 0.000000
v 0.092673 0.020778 0.000000
v 0.107917 0.000000 0.044701
v 0.085619 0.020778 0.035464
v 0.082596 -0.000000 0.082596
v 0.065530 0.020778 0.065530
v 0.044701 -0.000000 0.107917
v 0.035464 0.020778 0.085619
v -0.000000 -0.000000 0.116809
v -0.000000 0.020778 0.092673
v -0.044701 -0.000000 0.107917
v -0.035464 0.020778 0.085619
v -0.082596 -0.000000 0.082596
v -0.065530 0.020778 0.065530
v -0.107917 -0.000000 0.044701
v -0.085619 0.020778 0.035464
v -0.116809 -0.000000 -0.000000
v -0.092673 0.020778 -0.000000
v -0.107917 -0.000000 -0.044701
v -0.085619 0.020778 -0.035464
v -0.082596 -0.000000 -0.082596
v -0.065530 0.020778 -0.065530
v -0.044701 -0.000000 -0.107917
v -0.035464 0.020778 -0.085619
vn -0.0000 0.9870 -0.1606
vn 0.0615 0.9870 -0.1484
vn -0.0000 1.0000 -0.0000
vn -0.0615 0.9870 0.1484
vn -0.1136 0.9870 0.1136
vn 0.1484 0.9870 -0.0615
vn 0.1606 0.9870 -0.0000
vn 0.1136 0.9870 -0.1136
vn 0.6610 0.3554 0.6610
vn 0.6957 0.1786 0.6957
vn 0.3765 0.1786 0.9090
vn 0.3577 0.3554 0.8636
vn 0.1484 0.9870 0.0615
vn 0.1136 0.9870 0.1136
vn 0.0615 0.9870 0.1484
vn -0.0000 0.9870 0.1606
vn -0.0000 0.1786 0.9839
vn -0.0000 0.3554 0.9347
vn -0.1484 0.9870 0.0615
vn -0.1606 0.9870 -0.0000
vn -0.6610 0.3554 0.6610
vn -0.6957 0.1786 0.6957
vn -0.9090 0.1786 0.3765
vn -0.8636 0.3554 0.3577
vn -0.1484 0.9870 -0.0615
vn -0.1136 0.9870 -0.1136
vn -0.0000 -1.0000 -0.0000
vn -0.0615 0.9870 -0.1484
vn -0.9839 0.1786 -0.0000
vn -0.9347 0.3554 -0.0000
vn 1.0000 -0.0000 -0.0000
vn 0.9808 -0.0000 0.1951
vn 0.9347 0.3554 -0.0000
vn 0.9839 0.1786 -0.0000
vn 0.9090 0.1786 0.3765
vn 0.8636 0.3554 0.3577
vn 0.9808 -0.0000 -0.1951
vn -0.1951 -0.0000 -0.9808
vn -0.0000 -0.0000 -1.0000
vn -0.0000 0.3554 -0.9347
vn -0.0000 0.1786 -0.9839
vn 0.3765 0.1786 -0.9090
vn 0.3577 0.3554 -0.8636
vn 0.1951 -0.0000 -0.9808
vn 0.1951 -0.0000 0.9808
vn -0.0000 -0.0000 1.0000
vn -0.6610 0.3554 -0.6610
vn -0.6957 0.1786 -0.6957
vn -0.3765 0.1786 -0.9090
vn -0.3577 0.3554 -0.8636
vn -0.1951 -0.0000 0.9808
vn -1.0000 -0.0000 -0.0000
vn -0.9808 -0.0000 -0.1951
vn 0.8636 0.3554 -0.3577
vn 0.9090 0.1786 -0.3765
vn 0.6957 0.1786 -0.6957
vn 0.6610 0.3554 -0.6610
vn -0.3765 0.1786 0.9090
vn -0.3577 0.3554 0.8636
vn -0.8636 0.3554 -0.3577
vn -0.9090 0.1786 -0.3765
vn -0.9808 -0.0000 0.1951
vn -0.7071 -0.0000 0.7071
vn -0.7071 -0.0000 -0.7071
vn 0.7071 -0.0000 -0.7071
vn 0.7071 -0.0000 0.7071
vn -0.0000 0.9816 -0.1909
vn 0.0730 0.9816 -0.1763
vn 0.1350 0.9816 -0.1350
vn 0.1763 0.9816 -0.0730
vn 0.1909 0.9816 -0.0000
vn 0.1763 0.9816 0.0730
vn 0.1350 0.9816 0.1350
vn 0.0730 0.9816 0.1763
vn -0.0000 0.9816 0.1909
vn -0.0730 0.9816 0.1763
vn -0.1350 0.9816 0.1350
vn -0.1763 0.9816 0.0730
vn -0.1909 0.9816 -0.0000
vn -0.1763 0.9816 -0.0730
vn -0.1350 0.9816 -0.1350
vn -0.0730 0.9816 -0.1763
vn 0.3777 -0.1605 -0.9119
vn -0.0000 -0.1605 -0.9870
vn -0.3777 -0.1605 0.9119
vn -0.0000 -0.1605 0.9870
vn -0.3777 -0.1605 -0.9119
vn -0.6979 -0.1605 -0.6979
vn -0.9119 -0.1605 -0.3777
vn -0.9870 -0.1605 -0.0000
vn -0.9119 -0.1605 0.3777
vn -0.6979 -0.1605 0.6979
vn 0.3777 -0.1605 0.9119
vn 0.6979 -0.1605 0.6979
vn 0.9119 -0.1605 0.3777
vn 0.9870 -0.1605 -0.0000
vn 0.9119 -0.1605 -0.3777
vn 0.6979 -0.1605 -0.6979
vn 0.4397 0.7832 0.4397
vn 0.5744 0.7832 0.2379
vn -0.4397 0.7832 -0.4397
vn -0.5744 0.7832 -0.2379
vn 0.4397 0.7832 -0.4397
vn 0.2379 0.7832 -0.5744
vn -0.4397 0.7832 0.4397
vn -0.2379 0.7832 0.5744
vn -0.0000 0.7832 -0.6218
vn 0.5744 0.7832 -0.2379
vn 0.6218 0.7832 -0.0000
vn 0.2379 0.7832 0.5744
vn -0.0000 0.7832 0.6218
vn -0.5744 0.7832 0.2379
vn -0.6218 0.7832 -0.0000
vn -0.2379 0.7832 -0.5744
vn -0.2497 -0.7579 0.6028
vn -0.0000 -0.7579 0.6524
vn -0.4613 -0.7579 0.4613
vn -0.6028 -0.7579 0.2497
vn -0.6524 -0.7579 -0.0000
vn -0.6028 -0.7579 -0.2497
vn -0.4613 -0.7579 -0.4613
vn -0.2497 -0.7579 -0.6028
vn -0.0000 -0.7579 -0.6524
vn 0.2497 -0.7579 -0.6028
vn 0.4613 -0.7579 -0.4613
vn 0.6028 -0.7579 -0.2497
vn 0.6524 -0.7579 -0.0000
vn 0.6028 -0.7579 0.2497
vn 0.4613 -0.7579 0.4613
vn 0.2497 -0.7579 0.6028
vt 0.537007 0.667105
vt 0.480149 0.678274
vt 0.388808 0.642305
vt 0.537174 0.642308
vt 0.594219 0.953570
vt 0.642296 0.921454
vt 0.703423 0.982590
vt 0.686113 0.989895
vt 0.400313 0.757987
vt 0.389318 0.814273
vt 0.364759 0.814303
vt 0.364164 0.666628
vt 0.432206 0.710149
vt 0.371446 0.649379
vt 0.007740 0.074313
vt 0.472753 0.074313
vt 0.472753 0.107285
vt 0.007740 0.107285
vt 0.400800 0.870906
vt 0.433075 0.919150
vt 0.371532 0.979876
vt 0.364326 0.962523
vt 0.480785 0.952364
vt 0.388901 0.987097
vt 0.537696 0.964555
vt 0.537631 0.989366
vt 0.472753 0.140258
vt 0.007740 0.140258
vt 0.674354 0.873281
vt 0.685620 0.816251
vt 0.710501 0.816160
vt 0.710501 0.965150
vt 0.007740 0.206203
vt 0.472753 0.206203
vt 0.472753 0.239175
vt 0.007740 0.239175
vt 0.674176 0.759308
vt 0.710277 0.667286
vt 0.703142 0.649908
vt 0.641903 0.711009
vt 0.303277 0.765011
vt 0.274274 0.721605
vt 0.344429 0.651451
vt 0.351592 0.668745
vt 0.685812 0.642675
vt 0.593713 0.678626
vt 0.472753 0.272148
vt 0.007740 0.272148
vt 0.490875 0.597175
vt 0.638343 0.597175
vt 0.638343 0.633634
vt 0.490875 0.633634
vt 0.007740 0.008368
vt 0.472753 0.008368
vt 0.472753 0.041340
vt 0.007740 0.041340
vt 0.343407 0.633634
vt 0.343407 0.597175
vt 0.011033 0.597175
vt 0.158500 0.597175
vt 0.158500 0.633634
vt 0.011033 0.633634
vt 0.007740 0.404038
vt 0.472753 0.404038
vt 0.472753 0.437010
vt 0.007740 0.437010
vt 0.305968 0.597175
vt 0.305968 0.633634
vt 0.675782 0.582310
vt 0.528314 0.582310
vt 0.528314 0.545851
vt 0.675782 0.545851
vt 0.007740 0.338093
vt 0.472753 0.338093
vt 0.472753 0.371065
vt 0.007740 0.371065
vt 0.380846 0.582310
vt 0.380846 0.545851
vt 0.195940 0.582310
vt 0.048472 0.582310
vt 0.048472 0.545851
vt 0.195940 0.545851
vt 0.007740 0.502955
vt 0.472753 0.502955
vt 0.472753 0.535928
vt 0.007740 0.535928
vt 0.472753 0.469983
vt 0.007740 0.469983
vt 0.472753 0.173230
vt 0.007740 0.173230
vt 0.007740 0.305120
vt 0.472753 0.305120
vt 0.343408 0.545851
vt 0.343408 0.582310
vt 0.362127 0.582310
vt 0.362127 0.545851
vt 0.011033 0.582310
vt 0.011033 0.545851
vt 0.029752 0.545851
vt 0.029752 0.582310
vt 0.324688 0.633634
vt 0.324688 0.597175
vt 0.657063 0.597175
vt 0.657063 0.633634
vt 0.675782 0.597175
vt 0.675782 0.633634
vt 0.175622 0.840967
vt 0.185809 0.840973
vt 0.189165 0.857726
vt 0.172310 0.857726
vt 0.195223 0.837079
vt 0.204736 0.851273
vt 0.202432 0.829876
vt 0.216654 0.839352
vt 0.206339 0.820462
vt 0.223105 0.823776
vt 0.206347 0.810270
vt 0.223105 0.806917
vt 0.202455 0.800851
vt 0.216653 0.791341
vt 0.195255 0.793640
vt 0.204732 0.779420
vt 0.185846 0.789734
vt 0.189157 0.772972
vt 0.175659 0.789728
vt 0.172300 0.772977
vt 0.166247 0.793622
vt 0.156732 0.779436
vt 0.159045 0.800824
vt 0.144824 0.791360
vt 0.155148 0.810240
vt 0.138384 0.806928
vt 0.155139 0.820433
vt 0.138382 0.823780
vt 0.159022 0.829851
vt 0.144825 0.839353
vt 0.166216 0.837061
vt 0.156739 0.851275
vt 0.230868 0.692602
vt 0.327134 0.644287
vt 0.045871 0.816213
vt 0.056055 0.867414
vt 0.007740 0.963681
vt 0.007740 0.816213
vt 0.313462 0.816213
vt 0.351592 0.816213
vt 0.056055 0.765011
vt 0.007740 0.668745
vt 0.303277 0.867414
vt 0.351592 0.963681
vt 0.085058 0.721605
vt 0.014904 0.651451
vt 0.274274 0.910820
vt 0.344429 0.980975
vt 0.128465 0.692602
vt 0.032198 0.644287
vt 0.230868 0.939824
vt 0.327134 0.988139
vt 0.179666 0.682417
vt 0.179666 0.644287
vt 0.961553 0.345967
vt 0.961553 0.376658
vt 0.519959 0.376658
vt 0.519959 0.345967
vt 0.085058 0.910821
vt 0.128465 0.939824
vt 0.032198 0.988139
vt 0.014904 0.980975
vt 0.961553 0.100440
vt 0.961553 0.131131
vt 0.519959 0.131131
vt 0.519959 0.100440
vt 0.961553 0.407348
vt 0.519959 0.407348
vt 0.961553 0.438039
vt 0.519959 0.438039
vt 0.961553 0.468730
vt 0.519959 0.468730
vt 0.961553 0.499421
vt 0.519959 0.499421
vt 0.961553 0.008368
vt 0.961553 0.039059
vt 0.519959 0.039059
vt 0.519959 0.008368
vt 0.961553 0.069750
vt 0.519959 0.069750
vt 0.179666 0.950008
vt 0.179666 0.988139
vt 0.961553 0.161822
vt 0.519959 0.161822
vt 0.961553 0.192513
vt 0.519959 0.192513
vt 0.961553 0.223204
vt 0.519959 0.223204
vt 0.961553 0.253894
vt 0.519959 0.253894
vt 0.961553 0.284585
vt 0.519959 0.284585
vt 0.961553 0.315276
vt 0.519959 0.315276
vt 0.427711 0.859534
vt 0.454208 0.898552
vt 0.443660 0.908937
vt 0.414296 0.865329
vt 0.647072 0.770652
vt 0.621170 0.731781
vt 0.631477 0.721325
vt 0.660595 0.764891
vt 0.491301 0.705159
vt 0.452762 0.730620
vt 0.442426 0.720452
vt 0.485649 0.691748
vt 0.583080 0.926563
vt 0.621548 0.900849
vt 0.631999 0.911088
vt 0.588750 0.940040
vt 0.536876 0.696353
vt 0.536850 0.681730
vt 0.427109 0.768858
vt 0.413687 0.763506
vt 0.418277 0.814040
vt 0.403814 0.814266
vt 0.492341 0.925529
vt 0.486668 0.938973
vt 0.537766 0.935306
vt 0.537822 0.949949
vt 0.647236 0.862177
vt 0.660843 0.867639
vt 0.656241 0.816433
vt 0.670935 0.816248
vt 0.582472 0.705700
vt 0.588013 0.692126
vt 0.487618 0.131131
vt 0.487618 0.100440
vt 0.487618 0.069750
vt 0.487618 0.039059
vt 0.487618 0.008368
vt 0.487618 0.499421
vt 0.487618 0.468730
vt 0.487618 0.438039
vt 0.487618 0.407348
vt 0.487618 0.376658
vt 0.487618 0.345967
vt 0.487618 0.315276
vt 0.487618 0.284585
vt 0.487618 0.253894
vt 0.487618 0.223204
vt 0.487618 0.192513
vt 0.487618 0.161822
s 1
f 65/1/1 89/2/2 26/3/3 17/4/3
f 101/5/4 105/6/5 33/7/3 32/8/3
f 69/9/6 96/10/7 18/11/3 25/12/3
f 93/13/8 69/9/6 25/12/3 27/14/3
f 74/15/9 55/16/10 56/17/11 98/18/12
f 71/19/13 75/20/14 30/21/3 29/22/3
f 75/20/14 99/23/15 28/24/3 30/21/3
f 78/25/16 101/5/4 32/8/3 19/26/3
f 98/18/12 56/17/11 57/27/17 77/28/18
f 81/29/19 108/30/20 20/31/3 31/32/3
f 104/33/21 59/34/22 60/35/23 80/36/24
f 108/30/20 83/37/25 35/38/3 20/31/3
f 36/39/3 35/38/3 83/37/25 87/40/26
f 135/41/27 133/42/27 45/43/27 44/44/27
f 34/45/3 36/39/3 87/40/26 111/46/28
f 17/4/3 34/45/3 111/46/28 65/1/1
f 80/36/24 60/35/23 61/47/29 107/48/30
f 18/49/31 29/50/32 40/51/32 22/52/31
f 95/53/33 53/54/34 54/55/35 72/56/36
f 72/56/36 54/55/35 55/16/10 74/15/9
f 22/52/31 38/57/37 25/58/37 18/49/31
f 34/59/38 17/60/39 21/61/39 47/62/38
f 66/63/40 50/64/41 49/65/42 90/66/43
f 17/60/39 26/67/44 37/68/44 21/61/39
f 28/69/45 19/70/46 23/71/46 41/72/45
f 86/73/47 63/74/48 64/75/49 110/76/50
f 19/70/46 32/77/51 43/78/51 23/71/46
f 99/23/15 78/25/16 19/26/3 28/24/3
f 20/79/52 35/80/53 46/81/53 24/82/52
f 105/6/5 81/29/19 31/32/3 33/7/3
f 68/83/54 52/84/55 53/85/34 95/86/33
f 90/66/43 49/65/42 51/87/56 92/88/57
f 77/28/18 57/27/17 58/89/58 102/90/59
f 96/10/7 71/19/13 29/22/3 18/11/3
f 84/91/60 62/92/61 63/74/48 86/73/47
f 102/90/59 58/89/58 59/34/22 104/33/21
f 24/82/52 44/93/62 31/94/62 20/79/52
f 43/78/51 32/77/51 33/95/63 45/96/63
f 45/96/63 33/95/63 31/94/62 44/93/62
f 34/97/38 47/98/38 48/99/64 36/100/64
f 36/100/64 48/99/64 46/81/53 35/80/53
f 25/58/37 38/57/37 39/101/65 27/102/65
f 27/102/65 39/101/65 37/68/44 26/67/44
f 40/51/32 29/50/32 30/103/66 42/104/66
f 42/104/66 30/103/66 28/105/45 41/106/45
f 107/48/30 61/47/29 62/92/61 84/91/60
f 92/88/57 51/87/56 52/84/55 68/83/54
f 89/2/2 93/13/8 27/14/3 26/3/3
f 1/107/67 2/108/68 49/109/68 50/110/67
f 2/108/68 3/111/69 51/112/69 49/109/68
f 3/111/69 4/113/70 52/114/70 51/112/69
f 4/113/70 5/115/71 53/116/71 52/114/70
f 5/115/71 6/117/72 54/118/72 53/116/71
f 6/117/72 7/119/73 55/120/73 54/118/72
f 7/119/73 8/121/74 56/122/74 55/120/73
f 8/121/74 9/123/75 57/124/75 56/122/74
f 9/123/75 10/125/76 58/126/76 57/124/75
f 10/125/76 11/127/77 59/128/77 58/126/76
f 11/127/77 12/129/78 60/130/78 59/128/77
f 12/129/78 13/131/79 61/132/79 60/130/78
f 13/131/79 14/133/80 62/134/80 61/132/79
f 14/133/80 15/135/81 63/136/81 62/134/80
f 15/135/81 16/137/82 64/138/82 63/136/81
f 16/137/82 1/107/67 50/110/67 64/138/82
f 133/42/27 131/139/27 43/140/27 45/43/27
f 121/141/27 119/142/27 38/143/27 22/144/27
f 137/145/27 135/41/27 44/44/27 24/146/27
f 123/147/27 121/141/27 22/144/27 40/148/27
f 139/149/27 137/145/27 24/146/27 46/150/27
f 125/151/27 123/147/27 40/148/27 42/152/27
f 141/153/27 139/149/27 46/150/27 48/154/27
f 127/155/27 125/151/27 42/152/27 41/156/27
f 143/157/27 141/153/27 48/154/27 47/158/27
f 129/159/27 127/155/27 41/156/27 23/160/27
f 10/161/83 9/162/84 130/163/84 132/164/83
f 117/165/27 113/166/27 37/167/27 39/168/27
f 119/142/27 117/165/27 39/168/27 38/143/27
f 131/139/27 129/159/27 23/160/27 43/140/27
f 2/169/85 1/170/86 115/171/86 114/172/85
f 9/162/84 8/173/87 128/174/87 130/163/84
f 8/173/87 7/175/88 126/176/88 128/174/87
f 7/175/88 6/177/89 124/178/89 126/176/88
f 6/177/89 5/179/90 122/180/90 124/178/89
f 5/181/90 4/182/91 120/183/91 122/184/90
f 4/182/91 3/185/92 118/186/92 120/183/91
f 116/187/27 143/157/27 47/158/27 21/188/27
f 3/185/92 2/169/85 114/172/85 118/186/92
f 1/170/86 16/189/93 144/190/93 115/171/86
f 16/189/93 15/191/94 142/192/94 144/190/93
f 15/191/94 14/193/95 140/194/95 142/192/94
f 14/193/95 13/195/96 138/196/96 140/194/95
f 13/195/96 12/197/97 136/198/97 138/196/96
f 12/197/97 11/199/98 134/200/98 136/198/97
f 11/199/98 10/161/83 132/164/83 134/200/98
f 72/201/36 74/202/9 76/203/99 73/204/100
f 73/204/100 76/203/99 75/20/14 71/19/13
f 84/205/60 86/206/47 88/207/101 85/208/102
f 85/208/102 88/207/101 87/40/26 83/37/25
f 90/209/43 92/210/57 94/211/103 91/212/104
f 91/212/104 94/211/103 93/13/8 89/2/2
f 102/213/59 104/214/21 106/215/105 103/216/106
f 103/216/106 106/215/105 105/6/5 101/5/4
f 66/217/40 90/209/43 91/212/104 67/218/107
f 67/218/107 91/212/104 89/2/2 65/1/1
f 92/210/57 68/219/54 70/220/108 94/211/103
f 94/211/103 70/220/108 69/9/6 93/13/8
f 68/219/54 95/221/33 97/222/109 70/220/108
f 70/220/108 97/222/109 96/10/7 69/9/6
f 95/221/33 72/201/36 73/204/100 97/222/109
f 97/222/109 73/204/100 71/19/13 96/10/7
f 74/202/9 98/223/12 100/224/110 76/203/99
f 76/203/99 100/224/110 99/23/15 75/20/14
f 98/223/12 77/225/18 79/226/111 100/224/110
f 100/224/110 79/226/111 78/25/16 99/23/15
f 77/225/18 102/213/59 103/216/106 79/226/111
f 79/226/111 103/216/106 101/5/4 78/25/16
f 104/214/21 80/227/24 82/228/112 106/215/105
f 106/215/105 82/228/112 81/29/19 105/6/5
f 80/227/24 107/229/30 109/230/113 82/228/112
f 82/228/112 109/230/113 108/30/20 81/29/19
f 107/229/30 84/205/60 85/208/102 109/230/113
f 109/230/113 85/208/102 83/37/25 108/30/20
f 86/206/47 110/231/50 112/232/114 88/207/101
f 88/207/101 112/232/114 111/46/28 87/40/26
f 110/231/50 66/217/40 67/218/107 112/232/114
f 112/232/114 67/218/107 65/1/1 111/46/28
f 110/76/50 64/75/49 50/64/41 66/63/40
f 114/172/115 115/171/116 116/233/116 113/234/115
f 118/186/117 114/172/115 113/234/115 117/235/117
f 120/183/118 118/186/117 117/235/117 119/236/118
f 122/184/119 120/183/118 119/236/118 121/237/119
f 124/178/120 122/180/119 121/238/119 123/239/120
f 126/176/121 124/178/120 123/239/120 125/240/121
f 128/174/122 126/176/121 125/240/121 127/241/122
f 130/163/123 128/174/122 127/241/122 129/242/123
f 132/164/124 130/163/123 129/242/123 131/243/124
f 134/200/125 132/164/124 131/243/124 133/244/125
f 136/198/126 134/200/125 133/244/125 135/245/126
f 138/196/127 136/198/126 135/245/126 137/246/127
f 140/194/128 138/196/127 137/246/127 139/247/128
f 142/192/129 140/194/128 139/247/128 141/248/129
f 144/190/130 142/192/129 141/248/129 143/249/130
f 115/171/116 144/190/130 143/249/130 116/233/116
f 113/166/27 116/187/27 21/188/27 37/167/27
