# Blender 4.0.2
# www.blender.org
o concrete_block_stack
v -0.439870 0.430000 0.454124
v -0.439870 0.645000 0.454124
v -0.440758 0.430000 0.239126
v -0.440758 0.645000 0.239126
v 0.000126 0.430000 0.452308
v 0.000126 0.645000 0.452308
v -0.000762 0.430000 0.237309
v -0.000762 0.645000 0.237309
v 0.441077 0.000000 0.247033
v 0.441077 0.215000 0.247033
v 0.441077 0.000000 0.462033
v 0.441077 0.215000 0.462033
v 0.001077 0.000000 0.247033
v 0.001077 0.215000 0.247033
v 0.001077 0.000000 0.462033
v 0.001077 0.215000 0.462033
v 0.442696 0.000000 0.028794
v 0.442696 0.215000 0.028794
v 0.443583 -0.000000 0.243792
v 0.443583 0.215000 0.243792
v 0.002699 0.000000 0.030610
v 0.002699 0.215000 0.030610
v 0.003587 -0.000000 0.245608
v 0.003587 0.215000 0.245608
v 0.439346 0.000000 -0.193263
v 0.439346 0.215000 -0.193263
v 0.439346 -0.000000 0.021737
v 0.439346 0.215000 0.021737
v -0.000654 0.000000 -0.193263
v -0.000654 0.215000 -0.193263
v -0.000654 -0.000000 0.021737
v -0.000654 0.215000 0.021737
v 0.435563 0.000000 -0.409167
v 0.435563 0.215000 -0.409167
v 0.436444 0.000000 -0.194169
v 0.436444 0.215000 -0.194169
v -0.004433 0.000000 -0.407363
v -0.004433 0.215000 -0.407363
v -0.003552 0.000000 -0.192365
v -0.003552 0.215000 -0.192365
v -0.006103 0.000000 -0.198808
v -0.006103 0.215000 -0.198808
v -0.006103 0.000000 0.016192
v -0.006103 0.215000 0.016192
v -0.446103 0.000000 -0.198808
v -0.446103 0.215000 -0.198808
v -0.446103 0.000000 0.016192
v -0.446103 0.215000 0.016192
v -0.003587 0.000000 -0.418167
v -0.003587 0.215000 -0.418167
v -0.002705 0.000000 -0.203169
v -0.002705 0.215000 -0.203169
v -0.443583 0.000000 -0.416363
v -0.443583 0.215000 -0.416363
v -0.442702 0.000000 -0.201365
v -0.442702 0.215000 -0.201365
v -0.004212 0.000000 0.238542
v -0.004212 0.215000 0.238542
v -0.004212 0.000000 0.453542
v -0.004212 0.215000 0.453542
v -0.444212 0.000000 0.238542
v -0.444212 0.215000 0.238542
v -0.444212 0.000000 0.453542
v -0.444212 0.215000 0.453542
v -0.003587 0.000000 0.019183
v -0.003587 0.215000 0.019183
v -0.002705 -0.000000 0.234181
v -0.002705 0.215000 0.234181
v -0.443583 0.000000 0.020987
v -0.443583 0.215000 0.020987
v -0.442702 -0.000000 0.235985
v -0.442702 0.215000 0.235985
v 0.217677 0.215000 -0.416283
v 0.217677 0.430000 -0.416283
v 0.432677 0.215000 -0.416283
v 0.432677 0.430000 -0.416283
v 0.217677 0.215000 0.023717
v 0.217677 0.430000 0.023717
v 0.432677 0.215000 0.023717
v 0.432677 0.430000 0.023717
v -0.001518 0.215000 -0.415573
v -0.001518 0.430000 -0.415573
v 0.213480 0.215000 -0.416454
v 0.213480 0.430000 -0.416454
v 0.000286 0.215000 0.024423
v 0.000286 0.430000 0.024423
v 0.215284 0.215000 0.023542
v 0.215284 0.430000 0.023542
v 0.220072 0.215000 0.469324
v 0.220072 0.430000 0.469324
v 0.005072 0.215000 0.469324
v 0.005072 0.430000 0.469324
v 0.220072 0.215000 0.029324
v 0.220072 0.430000 0.029324
v 0.005072 0.215000 0.029324
v 0.005072 0.430000 0.029324
v 0.438234 0.215000 0.467255
v 0.438234 0.430000 0.467255
v 0.223236 0.215000 0.468143
v 0.223236 0.430000 0.468143
v 0.436418 0.215000 0.027259
v 0.436418 0.430000 0.027259
v 0.221419 0.215000 0.028146
v 0.221419 0.430000 0.028146
v -0.442646 0.430000 0.236595
v -0.442646 0.645000 0.236595
v -0.442646 0.430000 0.021595
v -0.442646 0.645000 0.021595
v -0.002646 0.430000 0.236595
v -0.002646 0.645000 0.236595
v -0.002646 0.430000 0.021595
v -0.002646 0.645000 0.021595
v 0.012502 0.430000 0.244131
v 0.012502 0.645000 0.244131
v 0.012502 0.430000 0.029131
v 0.012502 0.645000 0.029131
v 0.452502 0.430000 0.244131
v 0.452502 0.645000 0.244131
v 0.452502 0.430000 0.029131
v 0.452502 0.645000 0.029131
v 0.013899 0.430000 0.462439
v 0.013899 0.645000 0.462439
v 0.013018 0.430000 0.247441
v 0.013018 0.645000 0.247440
v 0.453896 0.430000 0.460635
v 0.453896 0.645000 0.460635
v 0.453014 0.430000 0.245636
v 0.453014 0.645000 0.245636
v -0.217160 0.215000 0.462693
v -0.217160 0.430000 0.462693
v -0.432160 0.215000 0.462693
v -0.432160 0.430000 0.462693
v -0.217160 0.215000 0.022693
v -0.217160 0.430000 0.022693
v -0.432160 0.215000 0.022693
v -0.432160 0.430000 0.022693
v 0.000294 0.215000 0.463282
v 0.000294 0.430000 0.463282
v -0.214704 0.215000 0.464164
v -0.214704 0.430000 0.464164
v -0.001510 0.215000 0.023286
v -0.001510 0.430000 0.023286
v -0.216508 0.215000 0.024167
v -0.216508 0.430000 0.024167
v -0.221903 0.215000 -0.416961
v -0.221903 0.430000 -0.416961
v -0.006903 0.215000 -0.416961
v -0.006903 0.430000 -0.416961
v -0.221903 0.215000 0.023039
v -0.221903 0.430000 0.023039
v -0.006903 0.215000 0.023039
v -0.006903 0.430000 0.023039
v -0.440066 0.215000 -0.421991
v -0.440066 0.430000 -0.421991
v -0.225067 0.215000 -0.422879
v -0.225067 0.430000 -0.422879
v -0.438249 0.215000 0.018005
v -0.438249 0.430000 0.018005
v -0.223251 0.215000 0.017118
v -0.223251 0.430000 0.017118
v -0.452879 0.430000 -0.200538
v -0.452879 0.645000 -0.200538
v -0.452879 0.430000 -0.415538
v -0.452879 0.645000 -0.415538
v -0.012879 0.430000 -0.200538
v -0.012879 0.645000 -0.200538
v -0.012879 0.430000 -0.415538
v -0.012879 0.645000 -0.415538
v -0.451212 0.430000 0.015365
v -0.451212 0.645000 0.015365
v -0.452094 0.430000 -0.199633
v -0.452094 0.645000 -0.199633
v -0.011216 0.430000 0.013561
v -0.011216 0.645000 0.013561
v -0.012097 0.430000 -0.201437
v -0.012097 0.645000 -0.201437
v -0.000845 0.430000 -0.194993
v -0.000845 0.645000 -0.194993
v -0.000845 0.430000 -0.409993
v -0.000845 0.645000 -0.409993
v 0.439155 0.430000 -0.194993
v 0.439155 0.645000 -0.194993
v 0.439155 0.430000 -0.409993
v 0.439155 0.645000 -0.409993
v -0.003361 0.430000 0.024365
v -0.003361 0.645000 0.024365
v -0.004242 0.430000 -0.190633
v -0.004242 0.645000 -0.190633
v 0.436635 0.430000 0.022561
v 0.436635 0.645000 0.022561
v 0.435754 0.430000 -0.192437
v 0.435754 0.645000 -0.192437
v 0.217677 0.645000 -0.416283
v 0.217677 0.860000 -0.416283
v 0.432677 0.645000 -0.416283
v 0.432677 0.860000 -0.416283
v 0.217677 0.645000 0.023717
v 0.217677 0.860000 0.023717
v 0.432677 0.645000 0.023717
v 0.432677 0.860000 0.023717
v -0.001518 0.645000 -0.415573
v -0.001518 0.860000 -0.415573
v 0.213480 0.645000 -0.416454
v 0.213480 0.860000 -0.416454
v 0.000286 0.645000 0.024423
v 0.000286 0.860000 0.024423
v 0.215284 0.645000 0.023542
v 0.215284 0.860000 0.023542
v 0.220072 0.645000 0.469324
v 0.220072 0.860000 0.469324
v 0.005072 0.645000 0.469324
v 0.005072 0.860000 0.469324
v 0.220072 0.645000 0.029324
v 0.220072 0.860000 0.029324
v 0.005072 0.645000 0.029324
v 0.005072 0.860000 0.029324
v 0.438234 0.645000 0.467255
v 0.438234 0.860000 0.467255
v 0.223236 0.645000 0.468143
v 0.223236 0.860000 0.468143
v 0.436418 0.645000 0.027259
v 0.436418 0.860000 0.027259
v 0.221419 0.645000 0.028146
v 0.221419 0.860000 0.028146
v -0.215942 0.645000 0.462693
v -0.215942 0.860000 0.462693
v -0.430942 0.645000 0.462693
v -0.430942 0.860000 0.462693
v -0.215942 0.645000 0.022693
v -0.215942 0.860000 0.022693
v -0.430942 0.645000 0.022693
v -0.430942 0.860000 0.022693
v -0.000039 0.645000 0.463282
v -0.000039 0.860000 0.463282
v -0.215037 0.645000 0.464164
v -0.215037 0.860000 0.464164
v -0.001842 0.645000 0.023286
v -0.001842 0.860000 0.023286
v -0.216841 0.645000 0.024167
v -0.216841 0.860000 0.024167
v -0.221903 0.645000 -0.416961
v -0.221903 0.860000 -0.416961
v -0.006903 0.645000 -0.416961
v -0.006903 0.860000 -0.416961
v -0.221903 0.645000 0.023039
v -0.221903 0.860000 0.023039
v -0.006903 0.645000 0.023039
v -0.006903 0.860000 0.023039
v -0.440066 0.645000 -0.421991
v -0.440066 0.860000 -0.421991
v -0.225067 0.645000 -0.422879
v -0.225067 0.860000 -0.422879
v -0.438249 0.645000 0.018005
v -0.438249 0.860000 0.018005
v -0.223251 0.645000 0.017118
v -0.223251 0.860000 0.017118
v -0.445335 0.860000 -0.202594
v -0.445335 1.075000 -0.202594
v -0.445335 0.860000 -0.417594
v -0.445335 1.075000 -0.417594
v -0.005335 0.860000 -0.202594
v -0.005335 1.075000 -0.202594
v -0.005335 0.860000 -0.417594
v -0.005335 1.075000 -0.417594
v -0.446954 0.860000 0.015645
v -0.446954 1.075000 0.018632
v -0.447842 0.860000 -0.199353
v -0.447842 1.075000 -0.196366
v -0.006958 0.860000 0.013829
v -0.006958 1.075000 0.016816
v -0.007846 0.860000 -0.201169
v -0.007846 1.075000 -0.198182
v -0.443605 0.860000 0.237703
v -0.443605 1.075000 0.237702
v -0.443605 0.860000 0.022703
v -0.443605 1.075000 0.022702
v -0.003605 0.860000 0.237703
v -0.003605 1.075000 0.237703
v -0.003605 0.860000 0.022703
v -0.003605 1.075000 0.022703
v -0.443145 0.860000 0.453606
v -0.443145 1.075000 0.453606
v -0.444027 0.860000 0.238608
v -0.444027 1.075000 0.238608
v -0.003149 0.860000 0.451802
v -0.003149 1.075000 0.451802
v -0.004030 0.860000 0.236804
v -0.004030 1.075000 0.236804
v 0.001844 0.860000 0.239078
v 0.001844 1.075000 0.239078
v 0.001844 0.860000 0.024078
v 0.001844 1.075000 0.024078
v 0.441844 0.860000 0.239078
v 0.441844 1.075000 0.239078
v 0.441844 0.860000 0.024078
v 0.441844 1.075000 0.024078
v -0.000327 0.860000 0.455688
v -0.000327 1.075000 0.455688
v 0.001475 0.860000 0.240696
v 0.001475 1.075000 0.240696
v 0.439658 0.860000 0.459376
v 0.439658 1.075000 0.459376
v 0.441460 0.860000 0.244383
v 0.441460 1.075000 0.244383
v -0.001667 0.860000 -0.194391
v -0.001667 1.075000 -0.194391
v -0.005477 0.860000 -0.409357
v -0.005477 1.075000 -0.409357
v 0.438264 0.860000 -0.202186
v 0.438264 1.075000 -0.202186
v 0.434454 0.860000 -0.417153
v 0.434454 1.075000 -0.417153
v -0.004733 0.860000 0.021087
v -0.004733 1.075000 0.021087
v -0.005615 0.860000 -0.193911
v -0.005615 1.075000 -0.193911
v 0.435263 0.860000 0.019283
v 0.435263 1.075000 0.019283
v 0.434382 0.860000 -0.195715
v 0.434382 1.075000 -0.195715
v -0.445173 0.960251 0.455710
v -0.445173 0.976096 0.455710
v -0.445600 0.960251 0.239788
v -0.445600 0.976096 0.239788
v 0.441621 0.956772 0.461446
v 0.441621 0.972616 0.461446
v 0.436386 0.967509 -0.419102
v 0.436386 0.983354 -0.419102
v -0.447012 0.960251 -0.420101
v -0.447012 0.976096 -0.420101
v -0.448643 0.976096 0.016485
v -0.448643 0.960251 0.016485
v -0.450499 0.976096 -0.199457
v -0.450499 0.960251 -0.199457
v -0.005547 0.979725 -0.419622
v -0.005547 0.963880 -0.419622
v 0.444256 0.975840 0.027190
v 0.444256 0.959995 0.027190
v 0.444599 0.973756 0.243415
v 0.444599 0.957912 0.243415
v -0.443184 0.960251 0.453723
v -0.443179 0.976096 0.453728
v -0.443600 0.960251 0.239770
v -0.443600 0.976096 0.239770
v 0.439649 0.956772 0.459431
v 0.439647 0.972616 0.459432
v 0.434401 0.967509 -0.417121
v 0.434412 0.983354 -0.417110
v -0.445038 0.960251 -0.418107
v -0.445049 0.976096 -0.418097
v -0.446643 0.976096 0.016463
v -0.446643 0.960251 0.016463
v -0.448499 0.976096 -0.199450
v -0.448499 0.960251 -0.199450
v -0.005554 0.979725 -0.417622
v -0.002978 0.963880 -0.418373
v 0.442256 0.975840 0.027202
v 0.442256 0.959995 0.027202
v 0.442599 0.973756 0.243403
v 0.442599 0.957912 0.243403
vn -0.0000 1.0000 -0.0000
vn -0.0041 -0.0000 -1.0000
vn 1.0000 -0.0000 -0.0041
vn 0.0041 -0.0000 1.0000
vn -0.0000 -1.0000 -0.0000
vn -1.0000 -0.0000 0.0041
vn -0.0000 -0.0000 1.0000
vn -1.0000 -0.0000 -0.0000
vn -0.0000 -0.0000 -1.0000
vn 1.0000 -0.0000 -0.0000
vn -0.0041 0.0139 -0.9999
vn 1.0000 0.0001 -0.0041
vn 0.0041 -0.0139 0.9999
vn -1.0000 -0.0001 0.0041
vn 0.0084 -0.0000 -1.0000
vn 1.0000 -0.0000 0.0084
vn -0.0084 -0.0000 1.0000
vn -1.0000 -0.0000 -0.0084
vn -0.0177 -0.0000 -0.9998
vn 0.9998 -0.0000 -0.0177
vn 0.0177 -0.0000 0.9998
vn -0.9998 -0.0000 0.0177
vn -0.0065 -0.0000 1.0000
vn -1.0000 -0.0000 0.0020
vn 1.0000 -0.0000 -0.0097
vn 1.0000 -0.0000 -0.0095
vn 0.9998 -0.0000 -0.0176
vn 0.0011 -0.0000 -1.0000
vn -0.9999 -0.0000 0.0111
vn -0.9999 -0.0000 0.0136
vn -1.0000 -0.0000 -0.0036
vn -0.9999 -0.0000 -0.0158
vn 0.0012 -0.0000 -1.0000
vn 1.0000 -0.0000 0.0060
vn 1.0000 -0.0000 0.0061
vn 0.9999 -0.0000 0.0137
vn 0.0065 0.0002 -1.0000
vn 1.0000 -0.0002 -0.0020
vn -1.0000 0.0002 0.0097
vn -0.9998 0.0003 0.0177
vn -1.0000 0.0002 0.0096
vn -0.0008 -0.0241 0.9997
vn -0.0000 -0.0240 0.9997
vn -0.0010 -0.0241 0.9997
vn 0.9999 -0.0000 -0.0111
vn 0.9999 -0.0000 -0.0136
vn 1.0000 0.0002 0.0036
vn 0.9999 0.0003 0.0158
vn -0.0018 -0.0242 0.9997
vn -1.0000 -0.0000 -0.0060
vn -1.0000 -0.0000 -0.0061
vn -0.9999 -0.0001 -0.0137
vn -0.0020 -1.0000 -0.0000
vn 0.0020 1.0000 -0.0000
vn 0.0006 1.0000 0.0026
vn -0.0006 -1.0000 -0.0026
vn -0.0013 1.0000 0.0074
vn -0.0001 -1.0000 -0.0092
vn -0.0042 -0.9999 -0.0132
vn -0.0000 -1.0000 -0.0091
vn 0.0002 1.0000 0.0064
vn -0.0082 1.0000 -0.0000
vn 0.0001 1.0000 0.0063
vn 0.0041 -1.0000 -0.0057
vn 0.0082 -0.9999 -0.0101
vn 0.0083 -1.0000 -0.0029
vn 0.0041 -1.0000 -0.0058
vn -0.0041 1.0000 0.0020
vn 0.0042 0.9999 0.0132
vn 0.0013 -1.0000 -0.0074
vt 0.816405 0.363671
vt 0.448921 0.363671
vt 0.448921 0.184105
vt 0.816405 0.184105
vt 0.448921 0.004539
vt 0.816405 0.004539
vt 0.269356 0.363671
vt 0.269356 0.184105
vt 0.816405 0.543236
vt 0.448921 0.543236
vt 0.816405 0.722802
vt 0.448921 0.722802
vt 0.995970 0.184105
vt 0.995970 0.363671
vt 0.137721 0.654527
vt 0.126115 0.654478
vt 0.126286 0.004894
vt 0.137892 0.004943
vt 0.101274 0.231817
vt 0.084899 0.231822
vt 0.084761 0.004885
vt 0.101331 0.004884
vt 0.011891 0.531699
vt 0.025603 0.531507
vt 0.024003 0.860515
vt 0.012350 0.860676
vt 0.049364 0.399177
vt 0.063484 0.399295
vt 0.064404 0.792280
vt 0.050328 0.792199
vt 0.101122 0.458749
vt 0.084905 0.458749
vt 0.101190 0.681877
vt 0.084863 0.681874
vt 0.101203 0.909081
vt 0.084838 0.909081
vt 0.050417 0.004907
vt 0.064494 0.005058
vt 0.009435 0.270129
vt 0.028631 0.270013
vt 0.009434 0.004989
vt 0.028745 0.004892
vt 0.158969 0.994414
vt 0.158969 0.004980
vt 0.176727 0.004909
vt 0.176724 0.994349
vt 0.261628 0.742195
vt 0.261628 0.981970
vt 0.243871 0.981965
vt 0.243872 0.742195
vt 0.204250 0.489586
vt 0.206570 0.987681
vt 0.188815 0.987476
vt 0.186494 0.489369
vt 0.216362 0.497551
vt 0.216354 0.005061
vt 0.234107 0.004926
vt 0.234158 0.500291
vt 0.261628 0.491919
vt 0.243872 0.491919
vt 0.261628 0.249950
vt 0.243872 0.249950
vt 0.261628 0.004894
vt 0.243871 0.004883
vt 0.216354 0.990573
vt 0.234106 0.990416
vt 0.204883 0.247276
vt 0.187127 0.247059
vt 0.206570 0.005155
vt 0.188815 0.004939
vt 0.080972 0.231827
vt 0.080888 0.008749
vt 0.105206 0.008728
vt 0.105201 0.231822
vt 0.149203 0.006532
vt 0.149204 0.643472
vt 0.114972 0.653148
vt 0.114972 0.016100
vt 0.004882 0.270164
vt 0.004882 0.009516
vt 0.030595 0.531554
vt 0.029688 0.855058
vt 0.042609 0.399191
vt 0.043662 0.011570
vt 0.070177 0.385490
vt 0.071117 0.785571
vt 0.105085 0.681861
vt 0.105112 0.905209
vt 0.080987 0.458732
vt 0.105040 0.458733
vt 0.080967 0.681857
vt 0.080929 0.905247
vt 0.043595 0.785603
vt 0.071118 0.011539
vt 0.006698 0.855153
vt 0.006899 0.531730
vt 0.033188 0.270054
vt 0.033301 0.009434
s 1
f 2/1/1 6/2/1 8/3/1 4/4/1
f 7/5/2 3/6/2 4/4/2 8/3/2
f 5/7/3 7/8/3 8/3/3 6/2/3
f 2/1/4 1/9/4 5/10/4 6/2/4
f 1/9/5 3/11/5 7/12/5 5/10/5
f 4/4/6 3/13/6 1/14/6 2/1/6
f 10/1/1 14/2/1 16/3/1 12/4/1
f 15/5/7 11/6/7 12/4/7 16/3/7
f 13/7/8 15/8/8 16/3/8 14/2/8
f 10/1/9 9/9/9 13/10/9 14/2/9
f 9/9/5 11/11/5 15/12/5 13/10/5
f 12/4/10 11/13/10 9/14/10 10/1/10
f 18/1/1 22/2/1 24/3/1 20/4/1
f 23/5/4 19/6/4 20/4/4 24/3/4
f 21/7/6 23/8/6 24/3/6 22/2/6
f 18/1/2 17/9/2 21/10/2 22/2/2
f 17/9/5 19/11/5 23/12/5 21/10/5
f 20/4/3 19/13/3 17/14/3 18/1/3
f 26/1/1 30/2/1 32/3/1 28/4/1
f 31/5/7 27/6/7 28/4/7 32/3/7
f 29/7/8 31/8/8 32/3/8 30/2/8
f 26/1/9 25/9/9 29/10/9 30/2/9
f 25/9/5 27/11/5 31/12/5 29/10/5
f 28/4/10 27/13/10 25/14/10 26/1/10
f 34/1/1 38/2/1 40/3/1 36/4/1
f 39/5/4 35/6/4 36/4/4 40/3/4
f 37/7/6 39/8/6 40/3/6 38/2/6
f 34/1/2 33/9/2 37/10/2 38/2/2
f 33/9/5 35/11/5 39/12/5 37/10/5
f 36/4/3 35/13/3 33/14/3 34/1/3
f 42/1/1 46/2/1 48/3/1 44/4/1
f 47/5/7 43/6/7 44/4/7 48/3/7
f 45/7/8 47/8/8 48/3/8 46/2/8
f 42/1/9 41/9/9 45/10/9 46/2/9
f 41/9/5 43/11/5 47/12/5 45/10/5
f 44/4/10 43/13/10 41/14/10 42/1/10
f 50/1/1 54/2/1 56/3/1 52/4/1
f 55/5/4 51/6/4 52/4/4 56/3/4
f 53/7/6 55/8/6 56/3/6 54/2/6
f 50/1/2 49/9/2 53/10/2 54/2/2
f 49/9/5 51/11/5 55/12/5 53/10/5
f 52/4/3 51/13/3 49/14/3 50/1/3
f 58/1/1 62/2/1 64/3/1 60/4/1
f 63/5/7 59/6/7 60/4/7 64/3/7
f 61/7/8 63/8/8 64/3/8 62/2/8
f 58/1/9 57/9/9 61/10/9 62/2/9
f 57/9/5 59/11/5 63/12/5 61/10/5
f 60/4/10 59/13/10 57/14/10 58/1/10
f 66/1/1 70/2/1 72/3/1 68/4/1
f 71/5/4 67/6/4 68/4/4 72/3/4
f 69/7/6 71/8/6 72/3/6 70/2/6
f 66/1/2 65/9/2 69/10/2 70/2/2
f 65/9/5 67/11/5 71/12/5 69/10/5
f 68/4/3 67/13/3 65/14/3 66/1/3
f 74/1/1 78/2/1 80/3/1 76/4/1
f 79/5/10 75/6/10 76/4/10 80/3/10
f 77/7/7 79/8/7 80/3/7 78/2/7
f 74/1/8 73/9/8 77/10/8 78/2/8
f 73/9/5 75/11/5 79/12/5 77/10/5
f 76/4/9 75/13/9 73/14/9 74/1/9
f 82/1/1 86/2/1 88/3/1 84/4/1
f 87/5/3 83/6/3 84/4/3 88/3/3
f 85/7/4 87/8/4 88/3/4 86/2/4
f 82/1/6 81/9/6 85/10/6 86/2/6
f 81/9/5 83/11/5 87/12/5 85/10/5
f 84/4/2 83/13/2 81/14/2 82/1/2
f 90/1/1 94/2/1 96/3/1 92/4/1
f 95/5/8 91/6/8 92/4/8 96/3/8
f 93/7/9 95/8/9 96/3/9 94/2/9
f 90/1/10 89/9/10 93/10/10 94/2/10
f 89/9/5 91/11/5 95/12/5 93/10/5
f 92/4/7 91/13/7 89/14/7 90/1/7
f 98/1/1 102/2/1 104/3/1 100/4/1
f 103/5/6 99/6/6 100/4/6 104/3/6
f 101/7/2 103/8/2 104/3/2 102/2/2
f 98/1/3 97/9/3 101/10/3 102/2/3
f 97/9/5 99/11/5 103/12/5 101/10/5
f 100/4/4 99/13/4 97/14/4 98/1/4
f 106/1/1 110/2/1 112/3/1 108/4/1
f 111/5/9 107/6/9 108/4/9 112/3/9
f 109/7/10 111/8/10 112/3/10 110/2/10
f 106/1/7 105/9/7 109/10/7 110/2/7
f 105/9/5 107/11/5 111/12/5 109/10/5
f 108/4/8 107/13/8 105/14/8 106/1/8
f 114/1/1 118/2/1 120/3/1 116/4/1
f 119/5/9 115/6/9 116/4/9 120/3/9
f 117/7/10 119/8/10 120/3/10 118/2/10
f 114/1/7 113/9/7 117/10/7 118/2/7
f 113/9/5 115/11/5 119/12/5 117/10/5
f 116/4/8 115/13/8 113/14/8 114/1/8
f 122/1/1 126/2/1 128/3/1 124/4/1
f 127/5/2 123/6/2 124/4/2 128/3/2
f 125/7/3 127/8/3 128/3/3 126/2/3
f 122/1/4 121/9/4 125/10/4 126/2/4
f 121/9/5 123/11/5 127/12/5 125/10/5
f 124/4/6 123/13/6 121/14/6 122/1/6
f 130/1/1 134/2/1 136/3/1 132/4/1
f 135/5/8 131/6/8 132/4/8 136/3/8
f 133/7/9 135/8/9 136/3/9 134/2/9
f 130/1/10 129/9/10 133/10/10 134/2/10
f 129/9/5 131/11/5 135/12/5 133/10/5
f 132/4/7 131/13/7 129/14/7 130/1/7
f 138/1/1 142/2/1 144/3/1 140/4/1
f 143/5/6 139/6/6 140/4/6 144/3/6
f 141/7/2 143/8/2 144/3/2 142/2/2
f 138/1/3 137/9/3 141/10/3 142/2/3
f 137/9/5 139/11/5 143/12/5 141/10/5
f 140/4/4 139/13/4 137/14/4 138/1/4
f 146/1/1 150/2/1 152/3/1 148/4/1
f 151/5/10 147/6/10 148/4/10 152/3/10
f 149/7/7 151/8/7 152/3/7 150/2/7
f 146/1/8 145/9/8 149/10/8 150/2/8
f 145/9/5 147/11/5 151/12/5 149/10/5
f 148/4/9 147/13/9 145/14/9 146/1/9
f 154/1/1 158/2/1 160/3/1 156/4/1
f 159/5/3 155/6/3 156/4/3 160/3/3
f 157/7/4 159/8/4 160/3/4 158/2/4
f 154/1/6 153/9/6 157/10/6 158/2/6
f 153/9/5 155/11/5 159/12/5 157/10/5
f 156/4/2 155/13/2 153/14/2 154/1/2
f 162/1/1 166/2/1 168/3/1 164/4/1
f 167/5/9 163/6/9 164/4/9 168/3/9
f 165/7/10 167/8/10 168/3/10 166/2/10
f 162/1/7 161/9/7 165/10/7 166/2/7
f 161/9/5 163/11/5 167/12/5 165/10/5
f 164/4/8 163/13/8 161/14/8 162/1/8
f 170/1/1 174/2/1 176/3/1 172/4/1
f 175/5/2 171/6/2 172/4/2 176/3/2
f 173/7/3 175/8/3 176/3/3 174/2/3
f 170/1/4 169/9/4 173/10/4 174/2/4
f 169/9/5 171/11/5 175/12/5 173/10/5
f 172/4/6 171/13/6 169/14/6 170/1/6
f 178/1/1 182/2/1 184/3/1 180/4/1
f 183/5/9 179/6/9 180/4/9 184/3/9
f 181/7/10 183/8/10 184/3/10 182/2/10
f 178/1/7 177/9/7 181/10/7 182/2/7
f 177/9/5 179/11/5 183/12/5 181/10/5
f 180/4/8 179/13/8 177/14/8 178/1/8
f 186/1/1 190/2/1 192/3/1 188/4/1
f 191/5/2 187/6/2 188/4/2 192/3/2
f 189/7/3 191/8/3 192/3/3 190/2/3
f 186/1/4 185/9/4 189/10/4 190/2/4
f 185/9/5 187/11/5 191/12/5 189/10/5
f 188/4/6 187/13/6 185/14/6 186/1/6
f 194/1/1 198/2/1 200/3/1 196/4/1
f 199/5/10 195/6/10 196/4/10 200/3/10
f 197/7/7 199/8/7 200/3/7 198/2/7
f 194/1/8 193/9/8 197/10/8 198/2/8
f 193/9/5 195/11/5 199/12/5 197/10/5
f 196/4/9 195/13/9 193/14/9 194/1/9
f 202/1/1 206/2/1 208/3/1 204/4/1
f 207/5/3 203/6/3 204/4/3 208/3/3
f 205/7/4 207/8/4 208/3/4 206/2/4
f 202/1/6 201/9/6 205/10/6 206/2/6
f 201/9/5 203/11/5 207/12/5 205/10/5
f 204/4/2 203/13/2 201/14/2 202/1/2
f 210/1/1 214/2/1 216/3/1 212/4/1
f 215/5/8 211/6/8 212/4/8 216/3/8
f 213/7/9 215/8/9 216/3/9 214/2/9
f 210/1/10 209/9/10 213/10/10 214/2/10
f 209/9/5 211/11/5 215/12/5 213/10/5
f 212/4/7 211/13/7 209/14/7 210/1/7
f 218/1/1 222/2/1 224/3/1 220/4/1
f 223/5/6 219/6/6 220/4/6 224/3/6
f 221/7/2 223/8/2 224/3/2 222/2/2
f 218/1/3 217/9/3 221/10/3 222/2/3
f 217/9/5 219/11/5 223/12/5 221/10/5
f 220/4/4 219/13/4 217/14/4 218/1/4
f 226/1/1 230/2/1 232/3/1 228/4/1
f 231/5/8 227/6/8 228/4/8 232/3/8
f 229/7/9 231/8/9 232/3/9 230/2/9
f 226/1/10 225/9/10 229/10/10 230/2/10
f 225/9/5 227/11/5 231/12/5 229/10/5
f 228/4/7 227/13/7 225/14/7 226/1/7
f 234/1/1 238/2/1 240/3/1 236/4/1
f 239/5/6 235/6/6 236/4/6 240/3/6
f 237/7/2 239/8/2 240/3/2 238/2/2
f 234/1/3 233/9/3 237/10/3 238/2/3
f 233/9/5 235/11/5 239/12/5 237/10/5
f 236/4/4 235/13/4 233/14/4 234/1/4
f 242/1/1 246/2/1 248/3/1 244/4/1
f 247/5/10 243/6/10 244/4/10 248/3/10
f 245/7/7 247/8/7 248/3/7 246/2/7
f 242/1/8 241/9/8 245/10/8 246/2/8
f 241/9/5 243/11/5 247/12/5 245/10/5
f 244/4/9 243/13/9 241/14/9 242/1/9
f 250/1/1 254/2/1 256/3/1 252/4/1
f 255/5/3 251/6/3 252/4/3 256/3/3
f 253/7/4 255/8/4 256/3/4 254/2/4
f 250/1/6 249/9/6 253/10/6 254/2/6
f 249/9/5 251/11/5 255/12/5 253/10/5
f 252/4/2 251/13/2 249/14/2 250/1/2
f 258/1/1 262/2/1 264/3/1 260/4/1
f 263/5/9 259/6/9 260/4/9 264/3/9
f 261/7/10 263/8/10 264/3/10 262/2/10
f 258/1/7 257/9/7 261/10/7 262/2/7
f 257/9/5 259/11/5 263/12/5 261/10/5
f 260/4/8 259/13/8 257/14/8 258/1/8
f 266/1/1 270/2/1 272/3/1 268/4/1
f 271/5/11 267/6/11 268/4/11 272/3/11
f 269/7/12 271/8/12 272/3/12 270/2/12
f 266/1/13 265/9/13 269/10/13 270/2/13
f 265/9/5 267/11/5 271/12/5 269/10/5
f 268/4/14 267/13/14 265/14/14 266/1/14
f 274/1/1 278/2/1 280/3/1 276/4/1
f 279/5/9 275/6/9 276/4/9 280/3/9
f 277/7/10 279/8/10 280/3/10 278/2/10
f 274/1/7 273/9/7 277/10/7 278/2/7
f 273/9/5 275/11/5 279/12/5 277/10/5
f 276/4/8 275/13/8 273/14/8 274/1/8
f 282/1/1 286/2/1 288/3/1 284/4/1
f 287/5/2 283/6/2 284/4/2 288/3/2
f 285/7/3 287/8/3 288/3/3 286/2/3
f 282/1/4 281/9/4 285/10/4 286/2/4
f 281/9/5 283/11/5 287/12/5 285/10/5
f 284/4/6 283/13/6 281/14/6 282/1/6
f 290/1/1 294/2/1 296/3/1 292/4/1
f 295/5/9 291/6/9 292/4/9 296/3/9
f 293/7/10 295/8/10 296/3/10 294/2/10
f 290/1/7 289/9/7 293/10/7 294/2/7
f 289/9/5 291/11/5 295/12/5 293/10/5
f 292/4/8 291/13/8 289/14/8 290/1/8
f 298/1/1 302/2/1 304/3/1 300/4/1
f 303/5/15 299/6/15 300/4/15 304/3/15
f 301/7/16 303/8/16 304/3/16 302/2/16
f 298/1/17 297/9/17 301/10/17 302/2/17
f 297/9/5 299/11/5 303/12/5 301/10/5
f 300/4/18 299/13/18 297/14/18 298/1/18
f 306/1/1 310/2/1 312/3/1 308/4/1
f 311/5/19 307/6/19 308/4/19 312/3/19
f 309/7/20 311/8/20 312/3/20 310/2/20
f 306/1/21 305/9/21 309/10/21 310/2/21
f 305/9/5 307/11/5 311/12/5 309/10/5
f 308/4/22 307/13/22 305/14/22 306/1/22
f 314/1/1 318/2/1 320/3/1 316/4/1
f 319/5/2 315/6/2 316/4/2 320/3/2
f 317/7/3 319/8/3 320/3/3 318/2/3
f 314/1/4 313/9/4 317/10/4 318/2/4
f 313/9/5 315/11/5 319/12/5 317/10/5
f 316/4/6 315/13/6 313/14/6 314/1/6
f 322/15/23 321/16/23 325/17/23 326/18/23
f 324/19/24 323/20/24 321/21/24 322/22/24
f 337/23/25 338/24/26 327/25/27 328/26/27
f 335/27/28 336/28/28 329/29/28 330/30/28
f 331/31/29 332/32/29 323/20/30 324/19/30
f 333/33/31 334/34/31 332/32/29 331/31/29
f 330/35/32 329/36/32 334/34/31 333/33/31
f 328/37/33 327/38/33 336/28/28 335/27/28
f 339/39/34 340/40/35 338/24/26 337/23/25
f 326/41/36 325/42/36 340/40/35 339/39/34
f 342/43/37 346/44/37 345/45/37 341/46/37
f 344/47/38 342/48/38 341/49/38 343/50/38
f 357/51/39 348/52/40 347/53/40 358/54/41
f 355/55/42 350/56/43 349/57/43 356/58/44
f 351/59/45 344/47/46 343/50/46 352/60/45
f 353/61/47 351/59/45 352/60/45 354/62/47
f 350/63/48 353/61/47 354/62/47 349/64/48
f 348/65/49 355/55/42 356/58/44 347/66/49
f 359/67/50 357/51/39 358/54/41 360/68/51
f 346/69/52 359/67/50 360/68/51 345/70/52
f 321/21/53 323/20/5 343/71/5 341/72/53
f 324/19/1 322/22/54 342/73/54 344/74/1
f 322/15/54 326/18/55 346/75/55 342/76/54
f 325/17/56 321/16/53 341/77/53 345/78/56
f 326/41/55 339/39/57 359/79/57 346/80/55
f 327/25/58 338/24/59 358/81/59 347/82/60
f 328/37/61 335/27/62 355/83/62 348/84/63
f 329/29/64 336/28/65 356/85/66 349/86/67
f 330/35/68 333/33/1 353/87/1 350/88/68
f 323/20/5 332/32/5 352/89/5 343/71/5
f 331/31/1 324/19/1 344/74/1 351/90/1
f 332/32/5 334/34/5 354/91/5 352/89/5
f 333/33/1 331/31/1 351/90/1 353/87/1
f 334/34/5 329/36/64 349/92/67 354/91/5
f 335/27/62 330/30/68 350/93/68 355/83/62
f 336/28/65 327/38/58 347/94/60 356/85/66
f 337/23/69 328/26/61 348/95/63 357/96/69
f 338/24/59 340/40/70 360/97/70 358/81/59
f 339/39/57 337/23/69 357/96/69 359/79/57
f 340/40/70 325/42/56 345/98/56 360/97/70
