# Blender 4.0.2
# www.blender.org
o concrete_block
v 0.220000 0.002500 0.107500
v 0.220000 0.217500 0.107500
v 0.220000 0.002500 -0.107500
v 0.220000 0.217500 -0.107500
v 0.000000 0.002500 -0.107500
v 0.000000 0.217500 -0.107500
v 0.000000 0.002500 0.107500
v 0.000000 0.217500 0.107500
v 0.036712 0.002500 -0.066329
v 0.019161 0.002500 -0.048778
v 0.024302 0.002500 -0.061188
v 0.163541 0.002500 -0.048778
v 0.145990 0.002500 -0.066329
v 0.158401 0.002500 -0.061188
v 0.145990 0.002500 0.066329
v 0.163541 0.002500 0.048778
v 0.158401 0.002500 0.061188
v 0.019161 0.002500 0.048778
v 0.036712 0.002500 0.066329
v 0.024302 0.002500 0.061188
v 0.145990 0.217500 -0.066329
v 0.163541 0.217500 -0.048778
v 0.158401 0.217500 -0.061188
v 0.019161 0.217500 -0.048778
v 0.036712 0.217500 -0.066329
v 0.024302 0.217500 -0.061188
v 0.036712 0.217500 0.066329
v 0.019161 0.217500 0.048778
v 0.024302 0.217500 0.061188
v 0.163541 0.217500 0.048778
v 0.145990 0.217500 0.066329
v 0.158401 0.217500 0.061188
v 0.000000 0.217500 -0.048778
v 0.000000 0.217500 0.048778
v 0.145990 0.217500 -0.107500
v 0.145990 0.002500 -0.107500
v 0.220000 0.217500 -0.048778
v 0.220000 0.002500 -0.048778
v 0.220000 0.002500 0.048778
v 0.220000 0.217500 0.048778
v 0.145990 0.217500 0.107500
v 0.145990 0.002500 0.107500
v 0.036712 0.217500 0.107500
v 0.036712 0.002500 0.107500
v 0.000000 0.002500 0.048778
v 0.000000 0.002500 -0.048778
v 0.036712 0.002500 -0.107500
v 0.036712 0.217500 -0.107500
v -0.220000 0.002500 0.107500
v -0.220000 0.217500 0.107500
v -0.220000 0.002500 -0.107500
v -0.220000 0.217500 -0.107500
v -0.036712 0.002500 -0.066329
v -0.019161 0.002500 -0.048778
v -0.024302 0.002500 -0.061188
v -0.163541 0.002500 -0.048778
v -0.145990 0.002500 -0.066329
v -0.158401 0.002500 -0.061188
v -0.145990 0.002500 0.066329
v -0.163541 0.002500 0.048778
v -0.158401 0.002500 0.061188
v -0.019161 0.002500 0.048778
v -0.036712 0.002500 0.066329
v -0.024302 0.002500 0.061188
v -0.145990 0.217500 -0.066329
v -0.163541 0.217500 -0.048778
v -0.158401 0.217500 -0.061188
v -0.019161 0.217500 -0.048778
v -0.036712 0.217500 -0.066329
v -0.024302 0.217500 -0.061188
v -0.036712 0.217500 0.066329
v -0.019161 0.217500 0.048778
v -0.024302 0.217500 0.061188
v -0.163541 0.217500 0.048778
v -0.145990 0.217500 0.066329
v -0.158401 0.217500 0.061188
v -0.145990 0.217500 -0.107500
v -0.145990 0.002500 -0.107500
v -0.220000 0.217500 -0.048778
v -0.220000 0.002500 -0.048778
v -0.220000 0.002500 0.048778
v -0.220000 0.217500 0.048778
v -0.145990 0.217500 0.107500
v -0.145990 0.002500 0.107500
v -0.036712 0.217500 0.107500
v -0.036712 0.002500 0.107500
v -0.036712 0.002500 -0.107500
v -0.036712 0.217500 -0.107500
vn -0.0000 -0.0000 -1.0000
vn 1.0000 -0.0000 -0.0000
vn -0.0000 -0.0000 1.0000
vn 0.9808 -0.0000 0.1951
vn 0.9808 -0.0000 -0.1951
vn 0.1951 -0.0000 -0.9808
vn -0.1951 -0.0000 -0.9808
vn -0.9808 -0.0000 -0.1951
vn -0.9808 -0.0000 0.1951
vn -0.0000 -1.0000 -0.0000
vn -0.0000 1.0000 -0.0000
vn 0.1951 -0.0000 0.9808
vn 0.7071 -0.0000 0.7071
vn 0.7071 -0.0000 -0.7071
vn -0.7071 -0.0000 -0.7071
vn -0.1951 -0.0000 0.9808
vn -0.7071 -0.0000 0.7071
vn -1.0000 -0.0000 -0.0000
vt 0.756180 0.249346
vt 0.993820 0.249346
vt 0.993820 0.289924
vt 0.756180 0.289924
vt 0.006180 0.594546
vt 0.243820 0.594546
vt 0.243820 0.659452
vt 0.006180 0.659451
vt 0.756180 0.504873
vt 0.993820 0.504873
vt 0.993820 0.586676
vt 0.756180 0.586676
vt 0.243820 0.474357
vt 0.243820 0.582185
vt 0.006180 0.582185
vt 0.006180 0.474357
vt 0.243820 0.035875
vt 0.243820 0.156660
vt 0.006180 0.156660
vt 0.006180 0.035875
vt 0.756180 0.707461
vt 0.993820 0.707461
vt 0.993820 0.748039
vt 0.756180 0.748039
vt 0.243820 0.186355
vt 0.243820 0.294183
vt 0.006180 0.294183
vt 0.006180 0.186355
vt 0.551687 0.208768
vt 0.557369 0.222486
vt 0.506180 0.249346
vt 0.506180 0.208768
vt 0.698313 0.208768
vt 0.743820 0.208768
vt 0.743820 0.249346
vt 0.692631 0.222485
vt 0.506180 0.006180
vt 0.571086 0.006180
vt 0.571086 0.068584
vt 0.557369 0.074266
vt 0.506181 0.504873
vt 0.571086 0.504873
vt 0.571086 0.567277
vt 0.557369 0.572958
vt 0.551687 0.586676
vt 0.506181 0.586676
vt 0.678914 0.249346
vt 0.678914 0.228167
vt 0.678914 0.567277
vt 0.678914 0.504873
vt 0.743820 0.504873
vt 0.692631 0.572958
vt 0.551687 0.087983
vt 0.506180 0.087983
vt 0.571086 0.726860
vt 0.571086 0.748039
vt 0.506180 0.748039
vt 0.557369 0.721178
vt 0.743820 0.748039
vt 0.678914 0.748039
vt 0.678914 0.726860
vt 0.692631 0.721178
vt 0.743820 0.586676
vt 0.698313 0.586676
vt 0.506180 0.707461
vt 0.551687 0.707461
vt 0.698313 0.707461
vt 0.743820 0.707461
vt 0.743820 0.006180
vt 0.743820 0.087983
vt 0.698313 0.087983
vt 0.692631 0.074266
vt 0.006180 0.444663
vt 0.243820 0.444663
vt 0.243820 0.459510
vt 0.006180 0.459510
vt 0.006180 0.021027
vt 0.243820 0.021028
vt 0.006180 0.006180
vt 0.243820 0.006181
vt 0.006180 0.171507
vt 0.243820 0.171508
vt 0.243820 0.323877
vt 0.006180 0.323878
vt 0.006180 0.309030
vt 0.243820 0.309030
vt 0.678914 0.068584
vt 0.678914 0.006180
vt 0.756180 0.410709
vt 0.993820 0.410709
vt 0.993820 0.492512
vt 0.756180 0.492512
vt 0.243820 0.767280
vt 0.006180 0.767280
vt 0.243820 0.832185
vt 0.006180 0.832185
vt 0.571086 0.249346
vt 0.571086 0.228167
vt 0.756180 0.208768
vt 0.993820 0.208768
vt 0.256180 0.832185
vt 0.256180 0.767280
vt 0.493820 0.767280
vt 0.493820 0.832185
vt 0.756180 0.991205
vt 0.756180 0.909402
vt 0.993820 0.909402
vt 0.993820 0.991205
vt 0.256180 0.474357
vt 0.493820 0.474357
vt 0.493820 0.582185
vt 0.256181 0.582185
vt 0.256180 0.035875
vt 0.493820 0.035875
vt 0.493820 0.156660
vt 0.256180 0.156660
vt 0.756180 0.788617
vt 0.993820 0.788616
vt 0.256180 0.186355
vt 0.493820 0.186355
vt 0.493820 0.294183
vt 0.256180 0.294183
vt 0.551687 0.289924
vt 0.506180 0.289924
vt 0.557369 0.276207
vt 0.698313 0.289924
vt 0.692631 0.276207
vt 0.743820 0.289924
vt 0.506181 0.492512
vt 0.557369 0.424427
vt 0.571086 0.430108
vt 0.571086 0.492512
vt 0.506180 0.991205
vt 0.557369 0.923119
vt 0.571086 0.928801
vt 0.571086 0.991205
vt 0.551687 0.909402
vt 0.506180 0.909402
vt 0.678914 0.270525
vt 0.678914 0.928801
vt 0.692631 0.923119
vt 0.743820 0.991205
vt 0.678914 0.991205
vt 0.551687 0.410710
vt 0.506180 0.410710
vt 0.571086 0.769217
vt 0.557369 0.774899
vt 0.692631 0.774899
vt 0.678914 0.769218
vt 0.698313 0.909402
vt 0.743820 0.909402
vt 0.551687 0.788617
vt 0.506180 0.788617
vt 0.698313 0.788617
vt 0.743820 0.788617
vt 0.743820 0.492512
vt 0.692631 0.424426
vt 0.698313 0.410709
vt 0.743820 0.410709
vt 0.493820 0.444662
vt 0.493820 0.459510
vt 0.256180 0.459510
vt 0.256180 0.444663
vt 0.256180 0.021027
vt 0.493820 0.021028
vt 0.256180 0.006180
vt 0.493820 0.006181
vt 0.256180 0.171507
vt 0.493820 0.171508
vt 0.256180 0.323878
vt 0.256180 0.309030
vt 0.493820 0.309030
vt 0.493820 0.323877
vt 0.678914 0.430108
vt 0.678914 0.492512
vt 0.756180 0.087983
vt 0.756180 0.006180
vt 0.993820 0.006180
vt 0.993820 0.087983
vt 0.256180 0.659452
vt 0.493820 0.659451
vt 0.256180 0.594546
vt 0.493820 0.594546
vt 0.571086 0.270525
s 1
f 5/1/1 6/2/1 48/3/1 47/4/1
f 3/5/2 4/6/2 37/7/2 38/8/2
f 1/9/3 2/10/3 41/11/3 42/12/3
f 24/13/4 28/14/5 18/15/5 10/16/4
f 27/17/6 31/18/7 15/19/7 19/20/6
f 44/21/3 43/22/3 8/23/3 7/24/3
f 30/25/8 22/26/9 12/27/9 16/28/8
f 9/29/10 11/30/10 5/31/10 47/32/10
f 19/33/10 44/34/10 7/35/10 20/36/10
f 3/37/10 38/38/10 12/39/10 14/40/10
f 2/41/11 40/42/11 30/43/11 32/44/11
f 31/45/11 41/46/11 2/41/11 32/44/11
f 7/35/10 45/47/10 18/48/10 20/36/10
f 22/49/11 37/50/11 4/51/11 23/52/11
f 13/53/10 36/54/10 3/37/10 14/40/10
f 28/55/11 34/56/11 8/57/11 29/58/11
f 6/59/11 33/60/11 24/61/11 26/62/11
f 4/51/11 35/63/11 21/64/11 23/52/11
f 8/57/11 43/65/11 27/66/11 29/58/11
f 25/67/11 48/68/11 6/59/11 26/62/11
f 1/69/10 42/70/10 15/71/10 17/72/10
f 9/73/12 25/74/12 26/75/13 11/76/13
f 11/76/13 26/75/13 24/13/4 10/16/4
f 27/17/6 19/20/6 20/77/14 29/78/14
f 29/78/14 20/77/14 18/79/5 28/80/5
f 30/25/8 16/28/8 17/81/15 32/82/15
f 32/82/15 17/81/15 15/19/7 31/18/7
f 21/83/16 13/84/16 14/85/17 23/86/17
f 23/86/17 14/85/17 12/27/9 22/26/9
f 21/83/16 25/74/12 9/73/12 13/84/16
f 16/87/10 39/88/10 1/69/10 17/72/10
f 24/61/11 33/60/11 34/56/11 28/55/11
f 21/64/11 35/63/11 48/68/11 25/67/11
f 36/89/1 35/90/1 4/91/1 3/92/1
f 12/39/10 38/38/10 39/88/10 16/87/10
f 38/8/2 37/7/2 40/93/2 39/94/2
f 39/94/2 40/93/2 2/95/2 1/96/2
f 30/43/11 40/42/11 37/50/11 22/49/11
f 18/48/10 45/47/10 46/97/10 10/98/10
f 42/12/3 41/11/3 43/22/3 44/21/3
f 15/71/10 42/70/10 44/34/10 19/33/10
f 27/66/11 43/65/11 41/46/11 31/45/11
f 9/29/10 47/32/10 36/54/10 13/53/10
f 47/4/1 48/3/1 35/90/1 36/89/1
f 10/98/10 46/97/10 5/31/10 11/30/10
f 5/1/1 87/99/1 88/100/1 6/2/1
f 51/101/18 80/102/18 79/103/18 52/104/18
f 49/105/3 84/106/3 83/107/3 50/108/3
f 68/109/9 54/110/9 62/111/8 72/112/8
f 71/113/7 63/114/7 59/115/6 75/116/6
f 86/117/3 7/24/3 8/23/3 85/118/3
f 74/119/5 60/120/5 56/121/4 66/122/4
f 53/123/10 87/124/10 5/31/10 55/125/10
f 63/126/10 64/127/10 7/35/10 86/128/10
f 51/129/10 58/130/10 56/131/10 80/132/10
f 50/133/11 76/134/11 74/135/11 82/136/11
f 75/137/11 76/134/11 50/133/11 83/138/11
f 7/35/10 64/127/10 62/139/10 45/47/10
f 66/140/11 67/141/11 52/142/11 79/143/11
f 57/144/10 58/130/10 51/129/10 78/145/10
f 72/146/11 73/147/11 8/57/11 34/56/11
f 6/59/11 70/148/11 68/149/11 33/60/11
f 52/142/11 67/141/11 65/150/11 77/151/11
f 8/57/11 73/147/11 71/152/11 85/153/11
f 69/154/11 70/148/11 6/59/11 88/155/11
f 49/156/10 61/157/10 59/158/10 84/159/10
f 53/160/16 55/161/17 70/162/17 69/163/16
f 55/161/17 54/110/9 68/109/9 70/162/17
f 71/113/7 73/164/15 64/165/15 63/114/7
f 73/164/15 72/166/8 62/167/8 64/165/15
f 74/119/5 76/168/14 61/169/14 60/120/5
f 76/168/14 75/116/6 59/115/6 61/169/14
f 65/170/12 67/171/13 58/172/13 57/173/12
f 67/171/13 66/122/4 56/121/4 58/172/13
f 65/170/12 57/173/12 53/160/16 69/163/16
f 60/174/10 61/157/10 49/156/10 81/175/10
f 68/149/11 72/146/11 34/56/11 33/60/11
f 65/150/11 69/154/11 88/155/11 77/151/11
f 78/176/1 51/177/1 52/178/1 77/179/1
f 56/131/10 60/174/10 81/175/10 80/132/10
f 80/102/18 81/180/18 82/181/18 79/103/18
f 81/180/18 49/182/18 50/183/18 82/181/18
f 74/135/11 66/140/11 79/143/11 82/136/11
f 62/139/10 54/184/10 46/97/10 45/47/10
f 84/106/3 86/117/3 85/118/3 83/107/3
f 59/158/10 63/126/10 86/128/10 84/159/10
f 71/152/11 75/137/11 83/138/11 85/153/11
f 53/123/10 57/144/10 78/145/10 87/124/10
f 87/99/1 78/176/1 77/179/1 88/100/1
f 54/184/10 55/125/10 5/31/10 46/97/10
